<mxfile host="Electron" agent="Mozilla/5.0 (Macintosh; Intel Mac OS X 10_15_7) AppleWebKit/537.36 (KHTML, like Gecko) draw.io/25.0.2 Chrome/128.0.6613.186 Electron/32.2.5 Safari/537.36" version="25.0.2">
  <diagram name="Страница — 1" id="pWL2CWbe-zxDe9L4tEUk">
    <mxGraphModel dx="1468" dy="1037" grid="1" gridSize="10" guides="1" tooltips="1" connect="1" arrows="1" fold="1" page="1" pageScale="1" pageWidth="827" pageHeight="1169" math="0" shadow="0">
      <root>
        <mxCell id="0" />
        <mxCell id="1" parent="0" />
        <mxCell id="drGPe8Ry7eNEMvqkn0kf-1" value="StudentBase" style="swimlane;fontStyle=1;align=center;verticalAlign=top;childLayout=stackLayout;horizontal=1;startSize=26;horizontalStack=0;resizeParent=1;resizeParentMax=0;resizeLast=0;collapsible=1;marginBottom=0;whiteSpace=wrap;html=1;" parent="1" vertex="1">
          <mxGeometry x="1104" y="704" width="160" height="220" as="geometry" />
        </mxCell>
        <mxCell id="drGPe8Ry7eNEMvqkn0kf-2" value="&lt;div&gt;-id&lt;/div&gt;&lt;div&gt;-git&lt;br&gt;&lt;/div&gt;" style="text;strokeColor=none;fillColor=none;align=left;verticalAlign=top;spacingLeft=4;spacingRight=4;overflow=hidden;rotatable=0;points=[[0,0.5],[1,0.5]];portConstraint=eastwest;whiteSpace=wrap;html=1;" parent="drGPe8Ry7eNEMvqkn0kf-1" vertex="1">
          <mxGeometry y="26" width="160" height="44" as="geometry" />
        </mxCell>
        <mxCell id="drGPe8Ry7eNEMvqkn0kf-3" value="" style="line;strokeWidth=1;fillColor=none;align=left;verticalAlign=middle;spacingTop=-1;spacingLeft=3;spacingRight=3;rotatable=0;labelPosition=right;points=[];portConstraint=eastwest;strokeColor=inherit;" parent="drGPe8Ry7eNEMvqkn0kf-1" vertex="1">
          <mxGeometry y="70" width="160" height="8" as="geometry" />
        </mxCell>
        <mxCell id="drGPe8Ry7eNEMvqkn0kf-4" value="&lt;div&gt;+id&lt;/div&gt;&lt;div&gt;+git&lt;br&gt;&lt;/div&gt;&lt;div&gt;-id=&lt;br&gt;&lt;/div&gt;&lt;div&gt;-git=&lt;br&gt;&lt;/div&gt;&lt;div&gt;+self.is_git_valid?&lt;/div&gt;&lt;div&gt;+initials&lt;/div&gt;&lt;div&gt;+contact&lt;/div&gt;&lt;div&gt;+validate?&lt;br&gt;+is_name_valid?&lt;br&gt;&lt;/div&gt;" style="text;strokeColor=none;fillColor=none;align=left;verticalAlign=top;spacingLeft=4;spacingRight=4;overflow=hidden;rotatable=0;points=[[0,0.5],[1,0.5]];portConstraint=eastwest;whiteSpace=wrap;html=1;" parent="drGPe8Ry7eNEMvqkn0kf-1" vertex="1">
          <mxGeometry y="78" width="160" height="142" as="geometry" />
        </mxCell>
        <mxCell id="drGPe8Ry7eNEMvqkn0kf-5" style="edgeStyle=orthogonalEdgeStyle;rounded=0;orthogonalLoop=1;jettySize=auto;html=1;endArrow=block;endFill=0;endSize=12;" parent="1" source="drGPe8Ry7eNEMvqkn0kf-6" target="drGPe8Ry7eNEMvqkn0kf-3" edge="1">
          <mxGeometry relative="1" as="geometry" />
        </mxCell>
        <mxCell id="drGPe8Ry7eNEMvqkn0kf-6" value="Student" style="swimlane;fontStyle=1;align=center;verticalAlign=top;childLayout=stackLayout;horizontal=1;startSize=26;horizontalStack=0;resizeParent=1;resizeParentMax=0;resizeLast=0;collapsible=1;marginBottom=0;whiteSpace=wrap;html=1;" parent="1" vertex="1">
          <mxGeometry x="932" y="879" width="160" height="440" as="geometry" />
        </mxCell>
        <mxCell id="drGPe8Ry7eNEMvqkn0kf-7" value="&lt;div&gt;-surname&lt;/div&gt;&lt;div&gt;-name&lt;/div&gt;&lt;div&gt;-second_name&lt;/div&gt;&lt;div&gt;-phone&lt;/div&gt;&lt;div&gt;-telegram&lt;/div&gt;&lt;div&gt;-email&lt;/div&gt;&lt;div&gt;-unique_indicator&lt;br&gt;&lt;/div&gt;" style="text;strokeColor=none;fillColor=none;align=left;verticalAlign=top;spacingLeft=4;spacingRight=4;overflow=hidden;rotatable=0;points=[[0,0.5],[1,0.5]];portConstraint=eastwest;whiteSpace=wrap;html=1;" parent="drGPe8Ry7eNEMvqkn0kf-6" vertex="1">
          <mxGeometry y="26" width="160" height="108" as="geometry" />
        </mxCell>
        <mxCell id="drGPe8Ry7eNEMvqkn0kf-8" value="" style="line;strokeWidth=1;fillColor=none;align=left;verticalAlign=middle;spacingTop=-1;spacingLeft=3;spacingRight=3;rotatable=0;labelPosition=right;points=[];portConstraint=eastwest;strokeColor=inherit;" parent="drGPe8Ry7eNEMvqkn0kf-6" vertex="1">
          <mxGeometry y="134" width="160" height="8" as="geometry" />
        </mxCell>
        <mxCell id="drGPe8Ry7eNEMvqkn0kf-9" value="&lt;div&gt;+to_h&lt;/div&gt;&lt;div&gt;+&amp;lt;=&amp;gt;&lt;br&gt;&lt;/div&gt;&lt;div&gt;+get_info&lt;/div&gt;&lt;div&gt;-set_contacts&lt;/div&gt;&lt;div&gt;+self.is_phone_valid?&lt;/div&gt;&lt;div&gt;+self._is_email_vaild?&lt;/div&gt;&lt;div&gt;+self.is_telegram_valid?&lt;/div&gt;&lt;div&gt;+to_s&lt;/div&gt;&lt;div&gt;-set_fullname&lt;br&gt;&lt;/div&gt;&lt;div&gt;-phone=&lt;/div&gt;&lt;div&gt;-email=&lt;/div&gt;&lt;div&gt;-telegram=&lt;br&gt;&lt;/div&gt;&lt;div&gt;-name=&lt;/div&gt;&lt;div&gt;-surname=&lt;/div&gt;&lt;div&gt;-second_name=&lt;br&gt;&lt;/div&gt;&lt;div&gt;+surname&lt;br&gt;&lt;/div&gt;&lt;div&gt;+name&lt;/div&gt;&lt;div&gt;+second_name&lt;/div&gt;&lt;div&gt;+unique_indicator&lt;/div&gt;&lt;div&gt;-unique_indicator=&lt;br&gt;&lt;/div&gt;" style="text;strokeColor=none;fillColor=none;align=left;verticalAlign=top;spacingLeft=4;spacingRight=4;overflow=hidden;rotatable=0;points=[[0,0.5],[1,0.5]];portConstraint=eastwest;whiteSpace=wrap;html=1;" parent="drGPe8Ry7eNEMvqkn0kf-6" vertex="1">
          <mxGeometry y="142" width="160" height="298" as="geometry" />
        </mxCell>
        <mxCell id="drGPe8Ry7eNEMvqkn0kf-10" value="StudentShort" style="swimlane;fontStyle=1;align=center;verticalAlign=top;childLayout=stackLayout;horizontal=1;startSize=26;horizontalStack=0;resizeParent=1;resizeParentMax=0;resizeLast=0;collapsible=1;marginBottom=0;whiteSpace=wrap;html=1;" parent="1" vertex="1">
          <mxGeometry x="1254" y="934" width="160" height="140" as="geometry">
            <mxRectangle x="520" y="310" width="110" height="30" as="alternateBounds" />
          </mxGeometry>
        </mxCell>
        <mxCell id="drGPe8Ry7eNEMvqkn0kf-11" value="&lt;div&gt;-contact&lt;/div&gt;&lt;div&gt;-initials&lt;br&gt;&lt;/div&gt;" style="text;strokeColor=none;fillColor=none;align=left;verticalAlign=top;spacingLeft=4;spacingRight=4;overflow=hidden;rotatable=0;points=[[0,0.5],[1,0.5]];portConstraint=eastwest;whiteSpace=wrap;html=1;" parent="drGPe8Ry7eNEMvqkn0kf-10" vertex="1">
          <mxGeometry y="26" width="160" height="34" as="geometry" />
        </mxCell>
        <mxCell id="drGPe8Ry7eNEMvqkn0kf-12" value="" style="line;strokeWidth=1;fillColor=none;align=left;verticalAlign=middle;spacingTop=-1;spacingLeft=3;spacingRight=3;rotatable=0;labelPosition=right;points=[];portConstraint=eastwest;strokeColor=inherit;" parent="drGPe8Ry7eNEMvqkn0kf-10" vertex="1">
          <mxGeometry y="60" width="160" height="8" as="geometry" />
        </mxCell>
        <mxCell id="drGPe8Ry7eNEMvqkn0kf-13" value="&lt;div&gt;+self.from_student&lt;/div&gt;&lt;div&gt;+self.from_string&lt;/div&gt;&lt;div&gt;+self.parse_info&lt;br&gt;&lt;/div&gt;&lt;div&gt;+to_s&lt;/div&gt;&lt;div&gt;&lt;br&gt;&lt;/div&gt;" style="text;strokeColor=none;fillColor=none;align=left;verticalAlign=top;spacingLeft=4;spacingRight=4;overflow=hidden;rotatable=0;points=[[0,0.5],[1,0.5]];portConstraint=eastwest;whiteSpace=wrap;html=1;" parent="drGPe8Ry7eNEMvqkn0kf-10" vertex="1">
          <mxGeometry y="68" width="160" height="72" as="geometry" />
        </mxCell>
        <mxCell id="drGPe8Ry7eNEMvqkn0kf-14" style="edgeStyle=orthogonalEdgeStyle;rounded=0;orthogonalLoop=1;jettySize=auto;html=1;entryX=1.018;entryY=0.03;entryDx=0;entryDy=0;entryPerimeter=0;endArrow=block;endFill=0;endSize=12;" parent="1" source="drGPe8Ry7eNEMvqkn0kf-10" target="drGPe8Ry7eNEMvqkn0kf-4" edge="1">
          <mxGeometry relative="1" as="geometry" />
        </mxCell>
        <mxCell id="drGPe8Ry7eNEMvqkn0kf-15" value="DataTable" style="swimlane;fontStyle=1;align=center;verticalAlign=top;childLayout=stackLayout;horizontal=1;startSize=26;horizontalStack=0;resizeParent=1;resizeParentMax=0;resizeLast=0;collapsible=1;marginBottom=0;whiteSpace=wrap;html=1;" parent="1" vertex="1">
          <mxGeometry x="1884" y="1035" width="160" height="120" as="geometry" />
        </mxCell>
        <mxCell id="drGPe8Ry7eNEMvqkn0kf-16" value="-data" style="text;strokeColor=none;fillColor=none;align=left;verticalAlign=top;spacingLeft=4;spacingRight=4;overflow=hidden;rotatable=0;points=[[0,0.5],[1,0.5]];portConstraint=eastwest;whiteSpace=wrap;html=1;" parent="drGPe8Ry7eNEMvqkn0kf-15" vertex="1">
          <mxGeometry y="26" width="160" height="26" as="geometry" />
        </mxCell>
        <mxCell id="drGPe8Ry7eNEMvqkn0kf-17" value="" style="line;strokeWidth=1;fillColor=none;align=left;verticalAlign=middle;spacingTop=-1;spacingLeft=3;spacingRight=3;rotatable=0;labelPosition=right;points=[];portConstraint=eastwest;strokeColor=inherit;" parent="drGPe8Ry7eNEMvqkn0kf-15" vertex="1">
          <mxGeometry y="52" width="160" height="8" as="geometry" />
        </mxCell>
        <mxCell id="drGPe8Ry7eNEMvqkn0kf-18" value="+count_rows&lt;div&gt;+count_cols&lt;/div&gt;&lt;div&gt;+get_element&lt;/div&gt;" style="text;strokeColor=none;fillColor=none;align=left;verticalAlign=top;spacingLeft=4;spacingRight=4;overflow=hidden;rotatable=0;points=[[0,0.5],[1,0.5]];portConstraint=eastwest;whiteSpace=wrap;html=1;" parent="drGPe8Ry7eNEMvqkn0kf-15" vertex="1">
          <mxGeometry y="60" width="160" height="60" as="geometry" />
        </mxCell>
        <mxCell id="drGPe8Ry7eNEMvqkn0kf-19" style="edgeStyle=orthogonalEdgeStyle;rounded=0;orthogonalLoop=1;jettySize=auto;html=1;entryX=-0.025;entryY=0.971;entryDx=0;entryDy=0;endArrow=none;endFill=0;startArrow=open;startFill=0;dashed=1;exitX=0.906;exitY=1;exitDx=0;exitDy=0;exitPerimeter=0;entryPerimeter=0;" parent="1" source="drGPe8Ry7eNEMvqkn0kf-27" target="drGPe8Ry7eNEMvqkn0kf-61" edge="1">
          <mxGeometry relative="1" as="geometry">
            <mxPoint x="1553" y="966.6666666666667" as="targetPoint" />
            <Array as="points">
              <mxPoint x="1541" y="1265" />
              <mxPoint x="1540" y="1265" />
              <mxPoint x="1540" y="1640" />
            </Array>
            <mxPoint x="1500" y="1390" as="sourcePoint" />
          </mxGeometry>
        </mxCell>
        <mxCell id="drGPe8Ry7eNEMvqkn0kf-21" value="&lt;div&gt;DataList&lt;/div&gt;" style="swimlane;fontStyle=1;align=center;verticalAlign=top;childLayout=stackLayout;horizontal=1;startSize=26;horizontalStack=0;resizeParent=1;resizeParentMax=0;resizeLast=0;collapsible=1;marginBottom=0;whiteSpace=wrap;html=1;" parent="1" vertex="1">
          <mxGeometry x="1622" y="1016" width="160" height="210" as="geometry" />
        </mxCell>
        <mxCell id="drGPe8Ry7eNEMvqkn0kf-22" value="&lt;div&gt;-data&lt;/div&gt;&lt;div&gt;-selected&lt;/div&gt;&lt;div&gt;-index&lt;br&gt;&lt;/div&gt;" style="text;strokeColor=none;fillColor=none;align=left;verticalAlign=top;spacingLeft=4;spacingRight=4;overflow=hidden;rotatable=0;points=[[0,0.5],[1,0.5]];portConstraint=eastwest;whiteSpace=wrap;html=1;" parent="drGPe8Ry7eNEMvqkn0kf-21" vertex="1">
          <mxGeometry y="26" width="160" height="54" as="geometry" />
        </mxCell>
        <mxCell id="drGPe8Ry7eNEMvqkn0kf-23" value="" style="line;strokeWidth=1;fillColor=none;align=left;verticalAlign=middle;spacingTop=-1;spacingLeft=3;spacingRight=3;rotatable=0;labelPosition=right;points=[];portConstraint=eastwest;strokeColor=inherit;" parent="drGPe8Ry7eNEMvqkn0kf-21" vertex="1">
          <mxGeometry y="80" width="160" height="8" as="geometry" />
        </mxCell>
        <mxCell id="drGPe8Ry7eNEMvqkn0kf-24" value="&lt;div&gt;+initialize&lt;/div&gt;&lt;div&gt;+data=&lt;/div&gt;&lt;div&gt;+select&lt;/div&gt;&lt;div&gt;+get_selected_ids&lt;/div&gt;&lt;div&gt;+get_names&lt;/div&gt;&lt;div&gt;+get_data&lt;/div&gt;&lt;div&gt;+get_row&lt;/div&gt;" style="text;strokeColor=none;fillColor=none;align=left;verticalAlign=top;spacingLeft=4;spacingRight=4;overflow=hidden;rotatable=0;points=[[0,0.5],[1,0.5]];portConstraint=eastwest;whiteSpace=wrap;html=1;" parent="drGPe8Ry7eNEMvqkn0kf-21" vertex="1">
          <mxGeometry y="88" width="160" height="122" as="geometry" />
        </mxCell>
        <mxCell id="drGPe8Ry7eNEMvqkn0kf-25" value="&lt;div&gt;DataListStudentShort&lt;/div&gt;" style="swimlane;fontStyle=1;align=center;verticalAlign=top;childLayout=stackLayout;horizontal=1;startSize=26;horizontalStack=0;resizeParent=1;resizeParentMax=0;resizeLast=0;collapsible=1;marginBottom=0;whiteSpace=wrap;html=1;" parent="1" vertex="1">
          <mxGeometry x="1396" y="1144" width="160" height="80" as="geometry" />
        </mxCell>
        <mxCell id="drGPe8Ry7eNEMvqkn0kf-26" value="" style="line;strokeWidth=1;fillColor=none;align=left;verticalAlign=middle;spacingTop=-1;spacingLeft=3;spacingRight=3;rotatable=0;labelPosition=right;points=[];portConstraint=eastwest;strokeColor=inherit;" parent="drGPe8Ry7eNEMvqkn0kf-25" vertex="1">
          <mxGeometry y="26" width="160" height="8" as="geometry" />
        </mxCell>
        <mxCell id="drGPe8Ry7eNEMvqkn0kf-27" value="&lt;div&gt;&lt;span style=&quot;background-color: initial;&quot;&gt;+get_names&lt;/span&gt;&lt;/div&gt;&lt;div&gt;+get_row&lt;/div&gt;" style="text;strokeColor=none;fillColor=none;align=left;verticalAlign=top;spacingLeft=4;spacingRight=4;overflow=hidden;rotatable=0;points=[[0,0.5],[1,0.5]];portConstraint=eastwest;whiteSpace=wrap;html=1;" parent="drGPe8Ry7eNEMvqkn0kf-25" vertex="1">
          <mxGeometry y="34" width="160" height="46" as="geometry" />
        </mxCell>
        <mxCell id="drGPe8Ry7eNEMvqkn0kf-28" style="edgeStyle=orthogonalEdgeStyle;rounded=0;orthogonalLoop=1;jettySize=auto;html=1;entryX=-0.004;entryY=0.411;entryDx=0;entryDy=0;entryPerimeter=0;endArrow=block;endFill=0;endSize=10;" parent="1" source="drGPe8Ry7eNEMvqkn0kf-25" target="drGPe8Ry7eNEMvqkn0kf-24" edge="1">
          <mxGeometry relative="1" as="geometry" />
        </mxCell>
        <mxCell id="drGPe8Ry7eNEMvqkn0kf-29" style="edgeStyle=orthogonalEdgeStyle;rounded=0;orthogonalLoop=1;jettySize=auto;html=1;entryX=0.316;entryY=1.003;entryDx=0;entryDy=0;entryPerimeter=0;exitX=-0.005;exitY=0.098;exitDx=0;exitDy=0;exitPerimeter=0;endArrow=diamondThin;endFill=0;" parent="1" source="drGPe8Ry7eNEMvqkn0kf-45" target="drGPe8Ry7eNEMvqkn0kf-9" edge="1">
          <mxGeometry relative="1" as="geometry">
            <mxPoint x="982.0799999999999" y="1596" as="targetPoint" />
            <mxPoint x="1103.0000000000002" y="1668" as="sourcePoint" />
            <Array as="points">
              <mxPoint x="1080" y="1757" />
              <mxPoint x="1080" y="1350" />
              <mxPoint x="983" y="1350" />
            </Array>
          </mxGeometry>
        </mxCell>
        <mxCell id="drGPe8Ry7eNEMvqkn0kf-32" style="edgeStyle=orthogonalEdgeStyle;rounded=0;orthogonalLoop=1;jettySize=auto;html=1;endArrow=block;endFill=0;endSize=12;exitX=0.514;exitY=1.017;exitDx=0;exitDy=0;exitPerimeter=0;entryX=0;entryY=0.25;entryDx=0;entryDy=0;" parent="1" source="drGPe8Ry7eNEMvqkn0kf-53" target="drGPe8Ry7eNEMvqkn0kf-39" edge="1">
          <mxGeometry relative="1" as="geometry">
            <mxPoint x="647" y="2092" as="sourcePoint" />
            <mxPoint x="665" y="1868" as="targetPoint" />
            <Array as="points">
              <mxPoint x="792" y="1752" />
              <mxPoint x="891" y="1752" />
            </Array>
          </mxGeometry>
        </mxCell>
        <mxCell id="drGPe8Ry7eNEMvqkn0kf-33" style="edgeStyle=orthogonalEdgeStyle;rounded=0;orthogonalLoop=1;jettySize=auto;html=1;endArrow=block;endFill=0;endSize=12;exitX=0.5;exitY=0;exitDx=0;exitDy=0;entryX=0;entryY=0.5;entryDx=0;entryDy=0;" parent="1" source="drGPe8Ry7eNEMvqkn0kf-46" target="drGPe8Ry7eNEMvqkn0kf-39" edge="1">
          <mxGeometry relative="1" as="geometry">
            <mxPoint x="842.1176470588235" y="1784" as="sourcePoint" />
            <mxPoint x="900" y="1790" as="targetPoint" />
          </mxGeometry>
        </mxCell>
        <mxCell id="drGPe8Ry7eNEMvqkn0kf-34" style="edgeStyle=orthogonalEdgeStyle;rounded=0;orthogonalLoop=1;jettySize=auto;html=1;entryX=1.016;entryY=0.915;entryDx=0;entryDy=0;dashed=1;entryPerimeter=0;endArrow=none;endFill=0;startArrow=open;startFill=0;" parent="1" source="drGPe8Ry7eNEMvqkn0kf-17" target="drGPe8Ry7eNEMvqkn0kf-22" edge="1">
          <mxGeometry relative="1" as="geometry">
            <mxPoint x="1859" y="1061" as="sourcePoint" />
            <mxPoint x="1769" y="1061" as="targetPoint" />
          </mxGeometry>
        </mxCell>
        <mxCell id="drGPe8Ry7eNEMvqkn0kf-36" style="edgeStyle=orthogonalEdgeStyle;rounded=0;orthogonalLoop=1;jettySize=auto;html=1;dashed=1;exitX=1.025;exitY=0.045;exitDx=0;exitDy=0;exitPerimeter=0;entryX=0.093;entryY=1.001;entryDx=0;entryDy=0;entryPerimeter=0;endArrow=open;endFill=0;" parent="1" source="drGPe8Ry7eNEMvqkn0kf-45" target="drGPe8Ry7eNEMvqkn0kf-27" edge="1">
          <mxGeometry relative="1" as="geometry">
            <mxPoint x="1310" y="1590" as="sourcePoint" />
            <mxPoint x="1410" y="1300" as="targetPoint" />
            <Array as="points">
              <mxPoint x="1411" y="1742" />
              <mxPoint x="1411" y="1660" />
              <mxPoint x="1410" y="1660" />
              <mxPoint x="1410" y="1310" />
              <mxPoint x="1411" y="1310" />
            </Array>
          </mxGeometry>
        </mxCell>
        <mxCell id="drGPe8Ry7eNEMvqkn0kf-37" value="" style="endArrow=none;html=1;rounded=0;exitX=0.498;exitY=1.028;exitDx=0;exitDy=0;exitPerimeter=0;entryX=-0.005;entryY=-0.017;entryDx=0;entryDy=0;entryPerimeter=0;endFill=0;startArrow=diamondThin;startFill=0;" parent="1" source="drGPe8Ry7eNEMvqkn0kf-13" target="drGPe8Ry7eNEMvqkn0kf-27" edge="1">
          <mxGeometry width="50" height="50" relative="1" as="geometry">
            <mxPoint x="1333.16" y="957.9960000000001" as="sourcePoint" />
            <mxPoint x="1473" y="1355.95" as="targetPoint" />
            <Array as="points">
              <mxPoint x="1333" y="1145.98" />
              <mxPoint x="1333" y="1177" />
            </Array>
          </mxGeometry>
        </mxCell>
        <mxCell id="drGPe8Ry7eNEMvqkn0kf-39" value="ReaderWriter" style="swimlane;fontStyle=1;align=center;verticalAlign=top;childLayout=stackLayout;horizontal=1;startSize=26;horizontalStack=0;resizeParent=1;resizeParentMax=0;resizeLast=0;collapsible=1;marginBottom=0;whiteSpace=wrap;html=1;" parent="1" vertex="1">
          <mxGeometry x="908" y="1722" width="160" height="119" as="geometry">
            <mxRectangle x="520" y="310" width="110" height="30" as="alternateBounds" />
          </mxGeometry>
        </mxCell>
        <mxCell id="drGPe8Ry7eNEMvqkn0kf-40" value="" style="line;strokeWidth=1;fillColor=none;align=left;verticalAlign=middle;spacingTop=-1;spacingLeft=3;spacingRight=3;rotatable=0;labelPosition=right;points=[];portConstraint=eastwest;strokeColor=inherit;" parent="drGPe8Ry7eNEMvqkn0kf-39" vertex="1">
          <mxGeometry y="26" width="160" height="8" as="geometry" />
        </mxCell>
        <mxCell id="drGPe8Ry7eNEMvqkn0kf-41" value="&lt;div&gt;&lt;span style=&quot;background-color: initial;&quot;&gt;+read (abstract)&lt;/span&gt;&lt;/div&gt;&lt;div&gt;+write (abstract)&lt;br&gt;&lt;/div&gt;" style="text;strokeColor=none;fillColor=none;align=left;verticalAlign=top;spacingLeft=4;spacingRight=4;overflow=hidden;rotatable=0;points=[[0,0.5],[1,0.5]];portConstraint=eastwest;whiteSpace=wrap;html=1;" parent="drGPe8Ry7eNEMvqkn0kf-39" vertex="1">
          <mxGeometry y="34" width="160" height="85" as="geometry" />
        </mxCell>
        <mxCell id="drGPe8Ry7eNEMvqkn0kf-42" value="&lt;div&gt;StudentList&lt;/div&gt;" style="swimlane;fontStyle=1;align=center;verticalAlign=top;childLayout=stackLayout;horizontal=1;startSize=39;horizontalStack=0;resizeParent=1;resizeParentMax=0;resizeLast=0;collapsible=1;marginBottom=0;whiteSpace=wrap;html=1;" parent="1" vertex="1">
          <mxGeometry x="1126" y="1581" width="160" height="340" as="geometry">
            <mxRectangle x="520" y="310" width="110" height="30" as="alternateBounds" />
          </mxGeometry>
        </mxCell>
        <mxCell id="drGPe8Ry7eNEMvqkn0kf-43" value="-path" style="text;strokeColor=none;fillColor=none;align=left;verticalAlign=top;spacingLeft=4;spacingRight=4;overflow=hidden;rotatable=0;points=[[0,0.5],[1,0.5]];portConstraint=eastwest;whiteSpace=wrap;html=1;" parent="drGPe8Ry7eNEMvqkn0kf-42" vertex="1">
          <mxGeometry y="39" width="160" height="34" as="geometry" />
        </mxCell>
        <mxCell id="V1mRsqlptT5nASqWF0CJ-1" value="-reader_writer" style="text;strokeColor=none;fillColor=none;align=left;verticalAlign=top;spacingLeft=4;spacingRight=4;overflow=hidden;rotatable=0;points=[[0,0.5],[1,0.5]];portConstraint=eastwest;whiteSpace=wrap;html=1;" vertex="1" parent="drGPe8Ry7eNEMvqkn0kf-42">
          <mxGeometry y="73" width="160" height="34" as="geometry" />
        </mxCell>
        <mxCell id="V1mRsqlptT5nASqWF0CJ-2" value="-students" style="text;strokeColor=none;fillColor=none;align=left;verticalAlign=top;spacingLeft=4;spacingRight=4;overflow=hidden;rotatable=0;points=[[0,0.5],[1,0.5]];portConstraint=eastwest;whiteSpace=wrap;html=1;" vertex="1" parent="drGPe8Ry7eNEMvqkn0kf-42">
          <mxGeometry y="107" width="160" height="34" as="geometry" />
        </mxCell>
        <mxCell id="drGPe8Ry7eNEMvqkn0kf-44" value="" style="line;strokeWidth=1;fillColor=none;align=left;verticalAlign=middle;spacingTop=-1;spacingLeft=3;spacingRight=3;rotatable=0;labelPosition=right;points=[];portConstraint=eastwest;strokeColor=inherit;" parent="drGPe8Ry7eNEMvqkn0kf-42" vertex="1">
          <mxGeometry y="141" width="160" height="8" as="geometry" />
        </mxCell>
        <mxCell id="drGPe8Ry7eNEMvqkn0kf-45" value="&lt;div&gt;&lt;span style=&quot;background-color: initial;&quot;&gt;+initiaize&lt;/span&gt;&lt;br&gt;&lt;/div&gt;&lt;div&gt;+read&lt;/div&gt;&lt;div&gt;+write&lt;/div&gt;&lt;div&gt;-strategy=&lt;br&gt;&lt;/div&gt;&lt;div&gt;+get_student_by_id&lt;/div&gt;&lt;div&gt;+get_student_page&lt;/div&gt;&lt;div&gt;+sort&lt;/div&gt;&lt;div&gt;+add_student&lt;/div&gt;&lt;div&gt;+update_student&lt;/div&gt;&lt;div&gt;+delete_by_id&lt;/div&gt;&lt;div&gt;+count&lt;/div&gt;&lt;div&gt;&lt;b&gt;&lt;/b&gt;&lt;div&gt;-student_is_new?&lt;br&gt;&lt;/div&gt;&lt;/div&gt;" style="text;strokeColor=none;fillColor=none;align=left;verticalAlign=top;spacingLeft=4;spacingRight=4;overflow=hidden;rotatable=0;points=[[0,0.5],[1,0.5]];portConstraint=eastwest;whiteSpace=wrap;html=1;" parent="drGPe8Ry7eNEMvqkn0kf-42" vertex="1">
          <mxGeometry y="149" width="160" height="191" as="geometry" />
        </mxCell>
        <mxCell id="drGPe8Ry7eNEMvqkn0kf-46" value="StudentReaderWriterYAML" style="swimlane;fontStyle=1;align=center;verticalAlign=top;childLayout=stackLayout;horizontal=1;startSize=26;horizontalStack=0;resizeParent=1;resizeParentMax=0;resizeLast=0;collapsible=1;marginBottom=0;whiteSpace=wrap;html=1;" parent="1" vertex="1">
          <mxGeometry x="710" y="1805" width="160" height="93" as="geometry">
            <mxRectangle x="520" y="310" width="110" height="30" as="alternateBounds" />
          </mxGeometry>
        </mxCell>
        <mxCell id="drGPe8Ry7eNEMvqkn0kf-48" value="" style="line;strokeWidth=1;fillColor=none;align=left;verticalAlign=middle;spacingTop=-1;spacingLeft=3;spacingRight=3;rotatable=0;labelPosition=right;points=[];portConstraint=eastwest;strokeColor=inherit;" parent="drGPe8Ry7eNEMvqkn0kf-46" vertex="1">
          <mxGeometry y="26" width="160" height="8" as="geometry" />
        </mxCell>
        <mxCell id="drGPe8Ry7eNEMvqkn0kf-49" value="&lt;div&gt;&lt;span style=&quot;background-color: initial;&quot;&gt;+read&lt;/span&gt;&lt;br&gt;&lt;/div&gt;&lt;div&gt;+write&lt;b&gt;&lt;br&gt;&lt;/b&gt;&lt;/div&gt;" style="text;strokeColor=none;fillColor=none;align=left;verticalAlign=top;spacingLeft=4;spacingRight=4;overflow=hidden;rotatable=0;points=[[0,0.5],[1,0.5]];portConstraint=eastwest;whiteSpace=wrap;html=1;" parent="drGPe8Ry7eNEMvqkn0kf-46" vertex="1">
          <mxGeometry y="34" width="160" height="59" as="geometry" />
        </mxCell>
        <mxCell id="drGPe8Ry7eNEMvqkn0kf-50" value="StudentReaderWriterJSON" style="swimlane;fontStyle=1;align=center;verticalAlign=top;childLayout=stackLayout;horizontal=1;startSize=26;horizontalStack=0;resizeParent=1;resizeParentMax=0;resizeLast=0;collapsible=1;marginBottom=0;whiteSpace=wrap;html=1;" parent="1" vertex="1">
          <mxGeometry x="710" y="1606.5" width="160" height="93" as="geometry">
            <mxRectangle x="520" y="310" width="110" height="30" as="alternateBounds" />
          </mxGeometry>
        </mxCell>
        <mxCell id="drGPe8Ry7eNEMvqkn0kf-52" value="" style="line;strokeWidth=1;fillColor=none;align=left;verticalAlign=middle;spacingTop=-1;spacingLeft=3;spacingRight=3;rotatable=0;labelPosition=right;points=[];portConstraint=eastwest;strokeColor=inherit;" parent="drGPe8Ry7eNEMvqkn0kf-50" vertex="1">
          <mxGeometry y="26" width="160" height="8" as="geometry" />
        </mxCell>
        <mxCell id="drGPe8Ry7eNEMvqkn0kf-53" value="&lt;div&gt;&lt;span style=&quot;background-color: initial;&quot;&gt;+read&lt;/span&gt;&lt;/div&gt;&lt;div&gt;+write&lt;b&gt;&lt;br&gt;&lt;/b&gt;&lt;/div&gt;" style="text;strokeColor=none;fillColor=none;align=left;verticalAlign=top;spacingLeft=4;spacingRight=4;overflow=hidden;rotatable=0;points=[[0,0.5],[1,0.5]];portConstraint=eastwest;whiteSpace=wrap;html=1;" parent="drGPe8Ry7eNEMvqkn0kf-50" vertex="1">
          <mxGeometry y="34" width="160" height="59" as="geometry" />
        </mxCell>
        <mxCell id="drGPe8Ry7eNEMvqkn0kf-54" style="edgeStyle=orthogonalEdgeStyle;rounded=0;orthogonalLoop=1;jettySize=auto;html=1;entryX=0.001;entryY=0.643;entryDx=0;entryDy=0;entryPerimeter=0;endArrow=diamondThin;endFill=0;startArrow=none;startFill=0;endSize=20;startSize=20;" parent="1" source="drGPe8Ry7eNEMvqkn0kf-41" target="drGPe8Ry7eNEMvqkn0kf-45" edge="1">
          <mxGeometry relative="1" as="geometry" />
        </mxCell>
        <mxCell id="drGPe8Ry7eNEMvqkn0kf-59" style="edgeStyle=orthogonalEdgeStyle;rounded=0;orthogonalLoop=1;jettySize=auto;html=1;exitX=0.487;exitY=1.02;exitDx=0;exitDy=0;exitPerimeter=0;entryX=-0.013;entryY=0.836;entryDx=0;entryDy=0;entryPerimeter=0;endArrow=diamondThin;endFill=0;" parent="1" source="drGPe8Ry7eNEMvqkn0kf-63" target="drGPe8Ry7eNEMvqkn0kf-9" edge="1">
          <mxGeometry relative="1" as="geometry">
            <mxPoint x="1791.06" y="2083" as="sourcePoint" />
            <mxPoint x="790" y="1350" as="targetPoint" />
            <Array as="points">
              <mxPoint x="1792" y="2030" />
              <mxPoint x="620" y="2030" />
              <mxPoint x="620" y="1270" />
            </Array>
          </mxGeometry>
        </mxCell>
        <mxCell id="drGPe8Ry7eNEMvqkn0kf-60" value="StudentListDB" style="swimlane;fontStyle=1;align=center;verticalAlign=top;childLayout=stackLayout;horizontal=1;startSize=26;horizontalStack=0;resizeParent=1;resizeParentMax=0;resizeLast=0;collapsible=1;marginBottom=0;whiteSpace=wrap;html=1;" parent="1" vertex="1">
          <mxGeometry x="1714" y="1581" width="160" height="200" as="geometry">
            <mxRectangle x="520" y="310" width="110" height="30" as="alternateBounds" />
          </mxGeometry>
        </mxCell>
        <mxCell id="drGPe8Ry7eNEMvqkn0kf-61" value="-client" style="text;strokeColor=none;fillColor=none;align=left;verticalAlign=top;spacingLeft=4;spacingRight=4;overflow=hidden;rotatable=0;points=[[0,0.5],[1,0.5]];portConstraint=eastwest;whiteSpace=wrap;html=1;" parent="drGPe8Ry7eNEMvqkn0kf-60" vertex="1">
          <mxGeometry y="26" width="160" height="34" as="geometry" />
        </mxCell>
        <mxCell id="drGPe8Ry7eNEMvqkn0kf-62" value="" style="line;strokeWidth=1;fillColor=none;align=left;verticalAlign=middle;spacingTop=-1;spacingLeft=3;spacingRight=3;rotatable=0;labelPosition=right;points=[];portConstraint=eastwest;strokeColor=inherit;" parent="drGPe8Ry7eNEMvqkn0kf-60" vertex="1">
          <mxGeometry y="60" width="160" height="8" as="geometry" />
        </mxCell>
        <mxCell id="drGPe8Ry7eNEMvqkn0kf-63" value="&lt;div&gt;&lt;span style=&quot;background-color: initial;&quot;&gt;+initiaize&lt;/span&gt;&lt;br&gt;&lt;/div&gt;&lt;div&gt;+get_student_by_id&lt;/div&gt;&lt;div&gt;+get_student_page&lt;/div&gt;&lt;div&gt;+add_student&lt;/div&gt;&lt;div&gt;+update_student&lt;/div&gt;&lt;div&gt;+delete_student&lt;/div&gt;&lt;div&gt;+count&lt;/div&gt;&lt;div&gt;_instance&lt;/div&gt;" style="text;strokeColor=none;fillColor=none;align=left;verticalAlign=top;spacingLeft=4;spacingRight=4;overflow=hidden;rotatable=0;points=[[0,0.5],[1,0.5]];portConstraint=eastwest;whiteSpace=wrap;html=1;" parent="drGPe8Ry7eNEMvqkn0kf-60" vertex="1">
          <mxGeometry y="68" width="160" height="132" as="geometry" />
        </mxCell>
      </root>
    </mxGraphModel>
  </diagram>
</mxfile>
